<?xml version="1.0" encoding="UTF-8"?>
<!DOCTYPE svg PUBLIC "-//W3C//DTD SVG 1.1//EN" "http://www.w3.org/Graphics/SVG/1.1/DTD/svg11.dtd">
<svg version="1.2" width="65mm" height="65mm" viewBox="0 0 6500 6500" preserveAspectRatio="xMidYMid" fill-rule="evenodd" stroke-width="28.222" stroke-linejoin="round" xmlns="http://www.w3.org/2000/svg" xmlns:ooo="http://xml.openoffice.org/svg/export" xmlns:xlink="http://www.w3.org/1999/xlink" xmlns:presentation="http://sun.com/xmlns/staroffice/presentation" xmlns:smil="http://www.w3.org/2001/SMIL20/" xmlns:anim="urn:oasis:names:tc:opendocument:xmlns:animation:1.0" xml:space="preserve">
 <defs class="ClipPathGroup">
  <clipPath id="presentation_clip_path" clipPathUnits="userSpaceOnUse">
   <rect x="0" y="0" width="6500" height="6500"/>
  </clipPath>
  <clipPath id="presentation_clip_path_shrink" clipPathUnits="userSpaceOnUse">
   <rect x="6" y="6" width="6487" height="6487"/>
  </clipPath>
 </defs>
 <defs class="TextShapeIndex">
  <g ooo:slide="id1" ooo:id-list="id3 id4 id5 id6 id7 id8 id9 id10 id11 id12 id13 id14 id15"/>
 </defs>
 <defs class="EmbeddedBulletChars">
  <g id="bullet-char-template-57356" transform="scale(0.00048828125,-0.00048828125)">
   <path d="M 580,1141 L 1163,571 580,0 -4,571 580,1141 Z"/>
  </g>
  <g id="bullet-char-template-57354" transform="scale(0.00048828125,-0.00048828125)">
   <path d="M 8,1128 L 1137,1128 1137,0 8,0 8,1128 Z"/>
  </g>
  <g id="bullet-char-template-10146" transform="scale(0.00048828125,-0.00048828125)">
   <path d="M 174,0 L 602,739 174,1481 1456,739 174,0 Z M 1358,739 L 309,1346 659,739 1358,739 Z"/>
  </g>
  <g id="bullet-char-template-10132" transform="scale(0.00048828125,-0.00048828125)">
   <path d="M 2015,739 L 1276,0 717,0 1260,543 174,543 174,936 1260,936 717,1481 1274,1481 2015,739 Z"/>
  </g>
  <g id="bullet-char-template-10007" transform="scale(0.00048828125,-0.00048828125)">
   <path d="M 0,-2 C -7,14 -16,27 -25,37 L 356,567 C 262,823 215,952 215,954 215,979 228,992 255,992 264,992 276,990 289,987 310,991 331,999 354,1012 L 381,999 492,748 772,1049 836,1024 860,1049 C 881,1039 901,1025 922,1006 886,937 835,863 770,784 769,783 710,716 594,584 L 774,223 C 774,196 753,168 711,139 L 727,119 C 717,90 699,76 672,76 641,76 570,178 457,381 L 164,-76 C 142,-110 111,-127 72,-127 30,-127 9,-110 8,-76 1,-67 -2,-52 -2,-32 -2,-23 -1,-13 0,-2 Z"/>
  </g>
  <g id="bullet-char-template-10004" transform="scale(0.00048828125,-0.00048828125)">
   <path d="M 285,-33 C 182,-33 111,30 74,156 52,228 41,333 41,471 41,549 55,616 82,672 116,743 169,778 240,778 293,778 328,747 346,684 L 369,508 C 377,444 397,411 428,410 L 1163,1116 C 1174,1127 1196,1133 1229,1133 1271,1133 1292,1118 1292,1087 L 1292,965 C 1292,929 1282,901 1262,881 L 442,47 C 390,-6 338,-33 285,-33 Z"/>
  </g>
  <g id="bullet-char-template-9679" transform="scale(0.00048828125,-0.00048828125)">
   <path d="M 813,0 C 632,0 489,54 383,161 276,268 223,411 223,592 223,773 276,916 383,1023 489,1130 632,1184 813,1184 992,1184 1136,1130 1245,1023 1353,916 1407,772 1407,592 1407,412 1353,268 1245,161 1136,54 992,0 813,0 Z"/>
  </g>
  <g id="bullet-char-template-8226" transform="scale(0.00048828125,-0.00048828125)">
   <path d="M 346,457 C 273,457 209,483 155,535 101,586 74,649 74,723 74,796 101,859 155,911 209,963 273,989 346,989 419,989 480,963 531,910 582,859 608,796 608,723 608,648 583,586 532,535 482,483 420,457 346,457 Z"/>
  </g>
  <g id="bullet-char-template-8211" transform="scale(0.00048828125,-0.00048828125)">
   <path d="M -4,459 L 1135,459 1135,606 -4,606 -4,459 Z"/>
  </g>
  <g id="bullet-char-template-61548" transform="scale(0.00048828125,-0.00048828125)">
   <path d="M 173,740 C 173,903 231,1043 346,1159 462,1274 601,1332 765,1332 928,1332 1067,1274 1183,1159 1299,1043 1357,903 1357,740 1357,577 1299,437 1183,322 1067,206 928,148 765,148 601,148 462,206 346,322 231,437 173,577 173,740 Z"/>
  </g>
 </defs>
 <g>
  <g id="id2" class="Master_Slide">
   <g id="bg-id2" class="Background"/>
   <g id="bo-id2" class="BackgroundObjects"/>
  </g>
 </g>
 <g class="SlideGroup">
  <g>
   <g id="container-id1">
    <g id="id1" class="Slide" clip-path="url(#presentation_clip_path)">
     <g class="Page">
      <g class="com.sun.star.drawing.CustomShape">
       <g id="id3">
        <rect class="BoundingBox" stroke="none" fill="none" x="37" y="27" width="6410" height="6382"/>
        <path fill="rgb(255,255,255)" stroke="none" d="M 6446,3217 C 6446,3777 6298,4327 6017,4812 5735,5297 5331,5700 4844,5980 4357,6260 3804,6407 3242,6407 2679,6407 2126,6260 1639,5980 1152,5700 748,5297 466,4812 185,4327 37,3777 37,3217 37,2657 185,2107 466,1622 748,1137 1152,734 1639,454 2126,174 2679,27 3241,27 3804,27 4357,174 4844,454 5331,734 5735,1137 6017,1622 6298,2107 6446,2657 6446,3217 L 6446,3217 Z"/>
       </g>
      </g>
      <g class="com.sun.star.drawing.CustomShape">
       <g id="id4">
        <rect class="BoundingBox" stroke="none" fill="none" x="1040" y="2165" width="1376" height="2222"/>
        <path fill="rgb(0,0,0)" stroke="none" d="M 1206,4386 L 1041,4386 2084,2165 2415,2165 1372,4386 1206,4386 Z"/>
       </g>
      </g>
      <g class="com.sun.star.drawing.CustomShape">
       <g id="id5">
        <rect class="BoundingBox" stroke="none" fill="none" x="2224" y="2160" width="310" height="2228"/>
        <path fill="rgb(0,0,0)" stroke="none" d="M 2381,4387 L 2230,4387 2224,2160 2527,2160 2533,4387 2381,4387 Z"/>
       </g>
      </g>
      <g class="com.sun.star.drawing.CustomShape">
       <g id="id6">
        <rect class="BoundingBox" stroke="none" fill="none" x="1482" y="3550" width="910" height="314"/>
        <path fill="rgb(0,0,0)" stroke="none" d="M 1937,3863 L 1482,3863 1482,3550 2391,3550 2391,3863 1937,3863 Z"/>
       </g>
      </g>
      <g class="com.sun.star.drawing.CustomShape">
       <g id="id7">
        <rect class="BoundingBox" stroke="none" fill="none" x="2694" y="4031" width="1249" height="362"/>
        <path fill="rgb(0,0,0)" stroke="none" d="M 3319,4392 L 2696,4392 2694,4031 3939,4031 3941,4392 3319,4392 Z"/>
       </g>
      </g>
      <g class="com.sun.star.drawing.CustomShape">
       <g id="id8">
        <rect class="BoundingBox" stroke="none" fill="none" x="2681" y="1670" width="356" height="2633"/>
        <path fill="rgb(0,0,0)" stroke="none" d="M 2861,4302 L 2687,4302 2681,1670 3030,1670 3036,4302 2861,4302 Z"/>
       </g>
      </g>
      <g class="com.sun.star.drawing.CustomShape">
       <g id="id9">
        <rect class="BoundingBox" stroke="none" fill="none" x="3168" y="1223" width="346" height="2723"/>
        <path fill="rgb(0,0,0)" stroke="none" d="M 3343,3945 L 3174,3945 3168,1223 3506,1223 3512,3945 3343,3945 Z"/>
       </g>
      </g>
      <g class="com.sun.star.drawing.CustomShape">
       <g id="id10">
        <rect class="BoundingBox" stroke="none" fill="none" x="3430" y="1226" width="1249" height="362"/>
        <path fill="rgb(0,0,0)" stroke="none" d="M 4055,1587 L 3432,1587 3430,1226 4675,1226 4677,1587 4055,1587 Z"/>
       </g>
      </g>
      <g class="com.sun.star.drawing.CustomShape">
       <g id="id11">
        <rect class="BoundingBox" stroke="none" fill="none" x="3430" y="2276" width="1248" height="320"/>
        <path fill="rgb(0,0,0)" stroke="none" d="M 4054,2595 L 3431,2595 3430,2276 4675,2276 4676,2595 4054,2595 Z"/>
       </g>
      </g>
      <g class="com.sun.star.drawing.CustomShape">
       <g id="id12">
        <rect class="BoundingBox" stroke="none" fill="none" x="3641" y="2712" width="1392" height="297"/>
        <path fill="rgb(0,0,0)" stroke="none" d="M 4337,3008 L 3641,3008 3641,2712 5032,2712 5032,3008 4337,3008 Z"/>
       </g>
      </g>
      <g class="com.sun.star.drawing.ClosedBezierShape">
       <g id="id13">
        <rect class="BoundingBox" stroke="none" fill="none" x="3641" y="2768" width="344" height="1171"/>
        <path fill="rgb(0,0,0)" stroke="none" d="M 3644,3938 C 3643,3614 3642,3291 3641,2967 3754,2901 3868,2834 3981,2768 3982,3092 3983,3415 3984,3739 3981,3742 3940,3756 3937,3757 3916,3767 3936,3757 3908,3768 3875,3782 3860,3789 3822,3811 3712,3884 3737,3866 3706,3889 3688,3903 3666,3919 3644,3938 Z"/>
       </g>
      </g>
      <g class="com.sun.star.drawing.CustomShape">
       <g id="id14">
        <rect class="BoundingBox" stroke="none" fill="none" x="3337" y="3418" width="1698" height="1761"/>
        <path fill="rgb(0,0,0)" stroke="none" d="M 3337,4741 L 3363,4779 3390,4814 3420,4850 3450,4882 3483,4915 3518,4945 3553,4974 3590,5001 3628,5026 3668,5049 3709,5072 3750,5091 3793,5109 3836,5125 3880,5138 3925,5151 3970,5160 4016,5167 4060,5173 4106,5176 4153,5177 4198,5176 4244,5173 4289,5167 4333,5159 4378,5150 4421,5138 4464,5124 4506,5107 4546,5089 4587,5069 4626,5047 4662,5024 4698,4998 4733,4971 4766,4942 4798,4912 4828,4880 4856,4847 4882,4811 4907,4776 4929,4738 4949,4700 4967,4661 4983,4620 4997,4579 5009,4537 5019,4495 5026,4452 5031,4409 5034,4365 5034,4322 5033,4279 5029,4235 5023,4191 5014,4148 5003,4105 4990,4063 4975,4021 4958,3980 4939,3939 4917,3900 4894,3862 4868,3824 4841,3788 4812,3753 4781,3719 4749,3687 4715,3657 4680,3628 4643,3600 4604,3575 4565,3550 4526,3528 4484,3509 4442,3490 4399,3474 4354,3459 4309,3447 4265,3437 4220,3430 4174,3424 4128,3421 4082,3419 4037,3420 3991,3423 3945,3428 3901,3435 3856,3445 3812,3456 3923,3763 3950,3756 3979,3750 4007,3745 4035,3741 4064,3741 4093,3740 4122,3740 4152,3743 4181,3746 4209,3752 4238,3758 4266,3765 4294,3774 4321,3784 4349,3797 4375,3809 4400,3823 4425,3838 4450,3854 4473,3871 4495,3890 4517,3910 4537,3930 4557,3951 4575,3973 4592,3996 4608,4019 4624,4044 4637,4069 4650,4095 4660,4121 4670,4148 4678,4174 4685,4201 4691,4229 4694,4257 4697,4285 4699,4312 4698,4339 4696,4368 4692,4395 4688,4422 4682,4449 4675,4475 4666,4501 4655,4526 4644,4552 4631,4576 4617,4599 4602,4623 4585,4644 4568,4666 4548,4686 4529,4705 4508,4724 4486,4741 4462,4758 4439,4772 4415,4786 4389,4799 4363,4810 4337,4821 4310,4829 4282,4837 4254,4843 4225,4848 4197,4852 4168,4853 4139,4854 4110,4853 4081,4852 4052,4849 4023,4844 3995,4837 3966,4830 3938,4822 3910,4812 3883,4801 3857,4788 3831,4774 3806,4759 3782,4743 3759,4726 3736,4708 3714,4689 3693,4669 3674,4647 3655,4626 3638,4602 3621,4579 3337,4741 Z"/>
       </g>
      </g>
      <g class="com.sun.star.drawing.CustomShape">
       <g id="id15">
        <rect class="BoundingBox" stroke="none" fill="none" x="202" y="190" width="6067" height="6052"/>
        <path fill="none" stroke="rgb(0,0,0)" stroke-width="81" stroke-linejoin="round" d="M 6227,3215 C 6227,3739 6089,4254 5826,4708 5564,5161 5186,5538 4731,5800 4276,6062 3760,6200 3235,6200 2710,6200 2194,6062 1739,5800 1284,5538 906,5161 644,4708 381,4254 243,3739 243,3216 243,2692 381,2177 644,1723 906,1270 1284,893 1739,631 2194,369 2710,231 3235,231 3760,231 4276,369 4731,631 5186,893 5564,1270 5826,1723 6089,2177 6227,2692 6227,3215 L 6227,3215 Z"/>
       </g>
      </g>
     </g>
    </g>
   </g>
  </g>
 </g>
</svg>